<?xml version="1.0" encoding="UTF-8"?>
<svg id="Ebene_2" data-name="Ebene 2" xmlns="http://www.w3.org/2000/svg" viewBox="0 0 64 64">
  <defs>
    <style>
      .cls-1 {
        fill: #132b40;
      }

      .cls-2 {
        fill: #e4e4e4;
      }

      .cls-3 {
        fill: #b4d2d9;
      }
    </style>
  </defs>
  <g id="Ebene_1-2" data-name="Ebene 1">
    <g>
      <polygon class="cls-3" points="64 13.16 64 41.05 61.9 37.7 60.15 37.32 59.04 35.89 57.54 35.19 55.58 35.75 51.22 39.63 49.99 39.56 48.08 38.96 45.82 39.37 43.81 39.58 43.29 39.28 41.8 39.73 40.24 40.32 39.23 39.37 37.36 40.41 34.75 44.6 32.49 45.46 30.09 46.35 27.49 50.54 25.61 51.58 24.6 50.64 23.05 51.22 21.55 51.67 21.04 51.37 19.03 51.59 16.77 51.99 14.86 51.4 13.62 51.32 9.27 55.2 7.3 55.76 5.8 55.06 4.69 53.63 2.94 53.25 .37 49.15 0 49.15 0 21.25 .37 21.25 2.94 25.36 4.69 25.74 5.8 27.17 7.3 27.87 9.27 27.31 13.62 23.43 14.86 23.51 16.77 24.1 19.03 23.7 21.04 23.48 21.55 23.78 23.05 23.33 24.6 22.75 25.61 23.69 27.49 22.65 30.09 18.46 32.49 17.57 34.75 16.71 37.36 12.52 39.23 11.48 40.24 12.42 41.8 11.84 43.29 11.39 43.81 11.69 45.82 11.47 48.08 11.07 49.99 11.66 51.22 11.74 55.58 7.86 57.54 7.3 59.04 8 60.15 9.43 61.9 9.81 64 13.16"/>
      <polygon class="cls-1" points="64 41.05 64 64 0 64 0 49.15 .37 49.15 2.94 53.25 4.69 53.63 5.8 55.06 7.3 55.76 9.27 55.2 13.62 51.32 14.86 51.4 16.77 51.99 19.03 51.59 21.04 51.37 21.55 51.67 23.05 51.22 24.6 50.64 25.61 51.58 27.49 50.54 30.09 46.35 32.49 45.46 34.75 44.6 37.36 40.41 39.23 39.37 40.24 40.32 41.8 39.73 43.29 39.28 43.81 39.58 45.82 39.37 48.08 38.96 49.99 39.56 51.22 39.63 55.58 35.75 57.54 35.19 59.04 35.89 60.15 37.32 61.9 37.7 64 41.05"/>
      <polygon class="cls-2" points="64 0 64 13.16 61.9 9.81 60.15 9.43 59.04 8 57.54 7.3 55.58 7.86 51.22 11.74 49.99 11.66 48.08 11.07 45.82 11.47 43.81 11.69 43.29 11.39 41.8 11.84 40.24 12.42 39.23 11.48 37.36 12.52 34.75 16.71 32.49 17.57 30.09 18.46 27.49 22.65 25.61 23.69 24.6 22.75 23.05 23.33 21.55 23.78 21.04 23.48 19.03 23.7 16.77 24.1 14.86 23.51 13.62 23.43 9.27 27.31 7.3 27.87 5.8 27.17 4.69 25.74 2.94 25.36 .37 21.25 0 21.25 0 0 64 0"/>
    </g>
  </g>
</svg>